<?xml version="1.0" encoding="UTF-8"?>
<svg width="180" height="40" viewBox="0 0 180 40" fill="none" xmlns="http://www.w3.org/2000/svg">
  <path d="M40 20C40 31.0457 31.0457 40 20 40C8.9543 40 0 31.0457 0 20C0 8.9543 8.9543 0 20 0C31.0457 0 40 8.9543 40 20Z" fill="#4F46E5"/>
  <path d="M20 6C13.3726 6 8 11.3726 8 18C8 24.6274 13.3726 30 20 30C26.6274 30 32 24.6274 32 18" stroke="white" stroke-width="3" stroke-linecap="round"/>
  <path d="M20 14C17.7909 14 16 15.7909 16 18C16 20.2091 17.7909 22 20 22C22.2091 22 24 20.2091 24 18" stroke="white" stroke-width="3" stroke-linecap="round"/>
  <path d="M55 15H50V30H55V15Z" fill="#111827"/>
  <path d="M52.5 12C53.8807 12 55 10.8807 55 9.5C55 8.11929 53.8807 7 52.5 7C51.1193 7 50 8.11929 50 9.5C50 10.8807 51.1193 12 52.5 12Z" fill="#111827"/>
  <path d="M70 15H65V30H70V21.5C70 19.0147 72.0147 17 74.5 17H77V15H74.5C72.0147 15 70 17.0147 70 19.5V15Z" fill="#111827"/>
  <path d="M86 30H81V15H86V17.5C86 15.0147 88.0147 13 90.5 13C92.9853 13 95 15.0147 95 17.5V30H90V18.5C90 17.1193 88.8807 16 87.5 16C86.1193 16 85 17.1193 85 18.5V30H86Z" fill="#111827"/>
  <path d="M100 15H105C107.761 15 110 17.2386 110 20V25C110 27.7614 107.761 30 105 30H100V15ZM105 25H105.5V20H105C104.448 20 104 20.4477 104 21V24C104 24.5523 104.448 25 105 25Z" fill="#111827"/>
  <path d="M120 15H115V30H120V15Z" fill="#111827"/>
  <path d="M117.5 12C118.881 12 120 10.8807 120 9.5C120 8.11929 118.881 7 117.5 7C116.119 7 115 8.11929 115 9.5C115 10.8807 116.119 12 117.5 12Z" fill="#111827"/>
  <path d="M135 15H130V30H135V21.5C135 19.0147 137.015 17 139.5 17H142V15H139.5C137.015 15 135 17.0147 135 19.5V15Z" fill="#111827"/>
  <path d="M155 20H145V25C145 27.7614 147.239 30 150 30C151.815 30 153.41 29.0289 154.234 27.5H150V25H157.5V27.5C157.5 29.433 151.791 32.5 150 32.5C145.858 32.5 142.5 29.1421 142.5 25V20C142.5 15.8579 145.858 12.5 150 12.5C154.142 12.5 157.5 15.8579 157.5 20H155ZM150 17.5C148.619 17.5 147.5 18.6193 147.5 20H152.5C152.5 18.6193 151.381 17.5 150 17.5Z" fill="#111827"/>
  <path d="M167.5 30C163.358 30 160 26.6421 160 22.5C160 18.3579 163.358 15 167.5 15C171.642 15 175 18.3579 175 22.5C175 26.6421 171.642 30 167.5 30ZM167.5 25C168.881 25 170 23.8807 170 22.5C170 21.1193 168.881 20 167.5 20C166.119 20 165 21.1193 165 22.5C165 23.8807 166.119 25 167.5 25Z" fill="#111827"/>
  <path d="M177 15H180L177.5 16.5L180 18V20L175 17.5V15H177Z" fill="#4F46E5"/>
  <path d="M177 25H180L177.5 26.5L180 28V30L175 27.5V25H177Z" fill="#4F46E5"/>
</svg> 