<svg width="320" height="650" viewBox="0 0 320 650" fill="none" xmlns="http://www.w3.org/2000/svg">
  <!-- Phone Frame -->
  <rect x="10" y="10" width="300" height="630" rx="30" fill="#3A5A78" stroke="#FFFFFF" stroke-width="2"/>
  <rect x="20" y="25" width="280" height="600" rx="20" fill="#FFFFFF"/>
  
  <!-- Status Bar -->
  <rect x="20" y="25" width="280" height="40" rx="20" fill="#F8F9FA"/>
  <circle cx="40" cy="45" r="8" fill="#3A5A78"/>
  <rect x="60" y="42" width="100" height="6" rx="3" fill="#3A5A78"/>
  <circle cx="280" cy="45" r="8" fill="#3A5A78"/>
  
  <!-- App Header -->
  <rect x="20" y="65" width="280" height="60" rx="10" fill="#3A5A78"/>
  <circle cx="50" cy="95" r="15" fill="#FFFFFF"/>
  <rect x="75" y="85" width="100" height="8" rx="4" fill="#FFFFFF"/>
  <rect x="75" y="97" width="60" height="6" rx="3" fill="#FFFFFF" fill-opacity="0.7"/>
  <circle cx="260" cy="95" r="10" stroke="#FFFFFF" stroke-width="2"/>
  
  <!-- Main Content - Timer -->
  <circle cx="160" cy="200" r="80" fill="#F8F9FA" stroke="#3A5A78" stroke-width="4"/>
  <circle cx="160" cy="200" r="70" fill="#FFFFFF" stroke="#3A5A78" stroke-width="2"/>
  
  <!-- Timer Numbers -->
  <text x="130" y="180" font-family="Arial, sans-serif" font-size="60" font-weight="bold" fill="#3A5A78">11</text>
  <text x="160" y="215" font-family="Arial, sans-serif" font-size="20" fill="#718096">minutes</text>
  
  <!-- Timer Bar -->
  <path d="M160 130 A70 70 0 0 1 230 200" stroke="#F8B400" stroke-width="6" stroke-linecap="round"/>
  
  <!-- Reading Mode/Notes Toggle -->
  <rect x="50" y="320" width="220" height="50" rx="25" fill="#F8F9FA"/>
  <rect x="55" y="325" width="105" height="40" rx="20" fill="#3A5A78"/>
  <text x="80" y="350" font-family="Arial, sans-serif" font-size="14" fill="#FFFFFF">Reading</text>
  <text x="190" y="350" font-family="Arial, sans-serif" font-size="14" fill="#718096">Notes</text>
  
  <!-- Statistics -->
  <rect x="40" y="400" width="110" height="80" rx="10" fill="#F8F9FA"/>
  <text x="60" y="430" font-family="Arial, sans-serif" font-size="12" fill="#718096">Today's Reading</text>
  <text x="60" y="460" font-family="Arial, sans-serif" font-size="24" font-weight="bold" fill="#3A5A78">33 min</text>
  
  <rect x="170" y="400" width="110" height="80" rx="10" fill="#F8F9FA"/>
  <text x="190" y="430" font-family="Arial, sans-serif" font-size="12" fill="#718096">Current Combo</text>
  <text x="190" y="460" font-family="Arial, sans-serif" font-size="24" font-weight="bold" fill="#F8B400">×3</text>
  
  <!-- Bottom Navigation -->
  <rect x="20" y="560" width="280" height="65" rx="10" fill="#F8F9FA"/>
  
  <circle cx="70" cy="590" r="15" fill="#FFFFFF" stroke="#3A5A78" stroke-width="2"/>
  <rect x="65" y="585" width="10" height="10" fill="#3A5A78"/>
  <rect x="55" y="610" width="30" height="4" rx="2" fill="#718096"/>
  
  <circle cx="160" cy="590" r="20" fill="#F8B400"/>
  <rect x="150" y="585" width="20" height="10" rx="2" fill="#FFFFFF"/>
  <rect x="145" y="610" width="30" height="4" rx="2" fill="#718096"/>
  
  <circle cx="250" cy="590" r="15" fill="#FFFFFF" stroke="#3A5A78" stroke-width="2"/>
  <circle cx="250" cy="585" r="5" fill="#3A5A78"/>
  <rect x="235" y="610" width="30" height="4" rx="2" fill="#718096"/>
  
  <!-- Phone Elements -->
  <rect x="120" y="30" width="80" height="5" rx="2.5" fill="#3A5A78"/>
  <circle cx="160" cy="600" r="20" stroke="#3A5A78" stroke-width="1"/>
</svg> 